<?xml version="1.0" encoding="utf-8"?>
<!-- Generator: Adobe Illustrator 23.1.1, SVG Export Plug-In . SVG Version: 6.00 Build 0)  -->
<svg version="1.1" id="Layer_1" xmlns="http://www.w3.org/2000/svg" xmlns:xlink="http://www.w3.org/1999/xlink" x="0px" y="0px"
	 viewBox="0 0 2792.444 1028.83" style="enable-background:new 0 0 2792.444 1028.83;" xml:space="preserve">
<style type="text/css">
	.st0{fill:#FFFFFF;}
</style>
<path class="st0" d="M1642.45,936.565c-24.35,0-39.886,13.974-39.886,36.519c0,22.544,15.536,36.518,39.886,36.518
	c24.349,0,39.886-13.974,39.886-36.518C1682.336,950.539,1666.799,936.565,1642.45,936.565z M1642.45,1005.381
	c-14.293,0-23.251-12.372-23.251-32.297c0-19.926,8.958-32.299,23.251-32.299c14.292,0,23.25,12.373,23.25,32.299
	C1665.7,993.009,1656.742,1005.381,1642.45,1005.381z"/>
<path class="st0" d="M1867.934,1000.905l-8.656-64.312h-0.927l-30.157,51.154l-31.456-51.184h-0.941l-8.399,64.344
	c-0.514,3.854-3.595,6.148-7.113,6.274c-3.517-0.106-6.51-2.403-7.137-6.276l-8.656-64.312h-0.927l-30.157,51.154l-31.456-51.184
	h-0.941l-8.399,64.344c-0.529,3.966-3.773,6.286-7.417,6.286h-1.606v1.003h21.218v-0.948h-1.58c-2.184-0.005-4.19-2.124-3.951-4.285
	l3.993-36.103l26.087,43.342h0.956c0.138-4.876,3.91-11.091,3.91-11.091l18.989-32.5l4.011,36.352
	c0.239,2.171-1.769,4.279-3.953,4.284h-1.579v0.947h26.685l21.218,0.002v-0.948h-1.58c-2.183-0.005-4.19-2.124-3.951-4.285
	l3.993-36.103l26.087,43.342h0.956c0.138-4.876,3.91-11.091,3.91-11.091l18.989-32.5l4.011,36.352
	c0.239,2.171-1.769,4.279-3.953,4.284h-1.579v0.947h30.46v-1.003h-1.614C1871.698,1007.191,1868.578,1004.871,1867.934,1000.905z"/>
<path class="st0" d="M1915.231,1003.91h-13.31v-28.232h13.57c4.908,0.151,8.482,3.749,8.469,8.593v0.869l0.99,0.012v-23.186
	l-0.99,0.012v0.869c0.014,4.887-3.619,8.505-8.597,8.598h-13.441v-29.189h17.059c6.08,0.252,9.915,4.196,9.902,10.234v1.179
	l1.024,0.014v-17.541c-1.885,0.787-7.732,1.787-12.102,1.826h-38.867l0.017,0.997h1.282c3.439,0,6.25,2.643,6.48,5.988v55.935
	c-0.067,3.494-2.946,6.308-6.495,6.308h-1.282l-0.016,1.003h52.492l4.671-20.473h-1.013
	C1931.931,997.682,1925.358,1003.91,1915.231,1003.91z"/>
<path class="st0" d="M2004.228,999.581c-3.819-4.712-9.9-14.254-10.208-14.742c-2.25-3.515-6.06-7.5-10.342-8.889
	c11.506-1.134,16.596-10.619,16.596-19.063c0-13.974-11.822-18.921-24.113-18.921l-34.791,0.003l0.015,0.997h1.294
	c3.537-0.005,6.416,2.809,6.484,6.303v55.663c-0.089,3.472-2.958,6.26-6.491,6.26h-1.282l-0.016,1.003h30.825l-0.016-1.003h-1.264
	c-3.567,0.001-6.446-2.813-6.512-6.307v-58.528c1.271,0.031,5.001-0.081,7.689,0.034c6.659,0.161,11.553,4.454,11.958,14.048
	c0.085,2.022-0.138,3.636-0.376,4.859c-1.807,8.788-7.35,11.541-12.802,11.597h-3.095v0.955c2.631,0.447,4.895,2.573,6.864,6.76
	c1.41,3,5.981,12.935,8.447,17.185c4.656,8.025,12.721,10.4,23.811,10.4h9.871v-1.006
	C2011.49,1007.11,2008.6,1005.089,2004.228,999.581z"/>
<path class="st0" d="M2080.432,978.917c-3.156,19.728-11.065,26.448-26.664,26.465c-15.097-0.401-24.602-12.759-24.602-32.62
	c0-19.711,9.827-31.969,25.909-31.969c11.147,0.007,19.851,5.252,23.546,18.426h0.844l-0.198-17.215
	c-5.749-2.952-14.412-5.435-25.209-5.435c-25.751,0-41.418,13.978-41.418,36.418c0,22.905,16.234,36.52,41.13,36.619
	c15.308,0,23.946-5.995,28.489-13.418l-0.98-17.27L2080.432,978.917z"/>
<path class="st0" d="M2188.128,1001.375l-30.142-65.42h-0.914c-0.246,2.921-4.263,11.618-4.986,13.143l-23.443,52.444
	c-2.153,3.985-5.65,5.652-8.529,5.652h-0.122c-3.549,0-6.428-2.814-6.495-6.309v-55.676c0.1-3.465,2.966-6.246,6.494-6.246h1.282
	l0.015-1.003h-30.795l0.017,1.003h1.282c3.534,0,6.405,2.792,6.493,6.267v55.655c-0.067,3.495-2.946,6.309-6.495,6.309h-1.282
	l-0.016,1.003h28.709h2.088h19.65v-0.994h-0.892c-2.617,0-5.542-2.283-3.878-6.299l5.187-12.397h23.79l4.991,12.397
	c1.547,4.016-1.301,6.298-3.919,6.298h-0.891v0.994h32.301v-1.003h-0.847C2193.792,1007.193,2190.323,1005.48,2188.128,1001.375z
	 M2143.139,984.279l10.389-24.635l9.917,24.635H2143.139z"/>
<path class="st0" d="M2254.004,987.727c-3.143,9.956-9.716,16.184-19.843,16.184h-13.309v-58.632
	c0.069-3.494,2.948-6.309,6.497-6.309h1.282l0.017-1.003h-30.799l0.016,1.003h1.283c3.548,0,6.427,2.815,6.494,6.309v55.609
	c-0.066,3.494-2.945,6.309-6.493,6.309h-1.283l-0.016,1.003h52.491l4.677-20.473H2254.004z"/>
<path class="st0" d="M2313.672,940.311h1.2l0.011-1.141h-30.811l0.02,1.141h1.221c3.359,0,6.099,2.659,6.16,6.1v54.429
	c-0.061,3.45-2.791,6.111-6.16,6.111h-1.17v1.139h30.689l-0.01-1.15h-1.15c-3.369,0-6.109-2.64-6.189-6.069v-54.56
	C2307.602,942.919,2310.332,940.311,2313.672,940.311z"/>
<path class="st0" d="M2359.746,1008.091v-1.148h1.317c3.476,0,6.384-2.633,6.413-6.095v-54.401
	c-0.029-3.464-2.937-6.098-6.415-6.098h-1.316V939.2h31.536v1.149h-1.285c-3.517,0-6.34,2.593-6.479,6.015v54.515
	c0.114,3.447,2.948,6.065,6.481,6.065h1.317v1.148L2359.746,1008.091z"/>
<path class="st0" d="M2460.179,955.551h-1.141v-1.07c0.045-6.543-3.678-10.694-10.177-10.79h-12.844v57.265
	c0.078,3.412,2.812,5.993,6.135,5.993h1.179v1.149h-30.734v-1.149h1.179c3.357,0,6.043-2.633,6.138-6.096v-57.161h-12.848
	c-6.498,0.096-10.177,4.247-10.177,10.79v1.07h-1.142v-18.215c1.838,0.729,7.528,1.759,11.677,1.759h41.051
	c4.164,0,10.259-1.03,11.692-1.759L2460.179,955.551z"/>
<path class="st0" d="M2530.916,979.307l1.308,17.314c-4.345,7.279-13.449,12.961-27.92,12.961
	c-24.756-0.115-40.106-13.211-40.106-35.97c0-22.495,14.993-35.868,40.106-35.868c10.168,0,19.198,2.279,25.048,5.218v18.24h-0.863
	c-3.77-14.103-12.029-18.944-23.048-18.944c-16.17,0-24.291,12.409-24.291,31.131c0,19.043,8.562,31.254,23.165,31.615
	c15.867,0.053,22.987-6.994,25.736-25.693L2530.916,979.307z"/>
<path class="st0" d="M2644.962,986.98l-4.319,21.1h-52.301v-1.151h1.33c3.27,0,5.95-2.58,6.02-6v-24.899h-31.86v24.84
	c0.1,3.45,2.59,6.08,5.691,6.08h1.129v1.139h-28.54v-1.139h1.161c3.049,0,5.599-2.63,5.629-6.09v-54.41
	c-0.03-3.47-2.58-6.101-5.629-6.101h-1.161V939.2h28.54v1.149h-1.129c-3.091,0-5.571,2.601-5.691,6.03v25.13h31.86v-25.17
	c-0.049-3.439-2.73-5.99-6.02-5.99h-1.33V939.2h39.131c4.17-0.021,9.789-1.04,11.55-1.761v18.311h-1.151v-1.071
	c0-6.619-3.68-10.769-10.11-10.859h-14.388c-0.901,0-1.632,0.73-1.632,1.632v26.198h12.651c5.229-0.101,8.49-3.941,8.49-9.08v-0.74
	h1.149v24.299h-1.149v-0.809c0-5.09-3.211-8.91-8.351-9.07h-12.79v25.598c0,0.901,0.731,1.632,1.632,1.632h11.748
	c9.41-0.101,15.851-6.341,18.761-16.5H2644.962z"/>
<path class="st0" d="M2731.492,939.21v1.147h-1.863c-3.266,0-5.878,2.441-6.055,5.704v50.168c0,8.006,1.193,13.356,1.193,13.356
	h-0.986l-50.546-46.454v37.946c0.095,3.346,2.74,5.869,6.062,5.869h1.831v1.148h-30.771v-1.148h1.796
	c3.32,0,6.034-2.523,6.061-5.869v-50.448c0-7.785-1.198-12.998-1.198-12.998l1.052,0.032l50.417,46.303v-37.739
	c-0.025-3.346-2.671-5.87-5.993-5.87h-1.863v-1.147H2731.492z"/>
<path class="st0" d="M2384.612,1024.21v0.95c-3.69,2-8.57,3.67-14.54,3.67c-14.83,0-27.08-14-27.08-14l-7.43-8.97l-24.79-29.91
	l-0.011-0.02l22.861-31.18c1.57-2.16,0.3-4.54-2.29-4.54h-0.93v-1.04h22.66v1.05h-0.42c-3.95,0.02-7.56,1.54-10.041,4.11
	l-18.51,22.49l-0.872,1.089c0,0,4.803,5.911,11.273,13.811c6.53,7.969,14.59,17.77,20.62,25c0.39,0.469,0.771,0.92,1.149,1.36
	c1.141,1.38,2.211,2.64,3.151,3.75C2370.072,1024.42,2384.612,1024.21,2384.612,1024.21z"/>
<path class="st0" d="M1586.575,959.583V942.5c0,0-9.25-5.936-26-5.936s-42.916,8.685-42.916,36.519s24.25,36.519,43.25,36.519
	s37.75-11.602,34.916-40.269h-1.083c0,0,1.917,36.084-31.25,36.084s-30.25-36.75-29.333-40c0.916-3.25,5.416-24.084,26.333-24.084
	S1586.575,959.583,1586.575,959.583z"/>
<path class="st0" d="M1583.069,456.218c25.955-0.31,60.357-6.315,71.491-11.039V551.01l-6.089-0.09v-7.135
	c0.074-37.02-23.359-61.039-60.375-61.986h-81.074v356.297c0.646,20.923,17.681,37.694,38.639,37.694h7.634l0.096,6.072h-183.402
	l0.097-6.072h7.634c20.795,0,37.722-16.503,38.62-37.196V481.792h-81.146c-37.016,0.947-60.448,24.968-60.375,61.987v7.135
	l-6.089,0.091V445.174c11.133,4.723,45.543,10.728,71.503,11.038L1583.069,456.218z"/>
<path class="st0" d="M2029.566,757.968l-27.85,123.888h-312.45l0.097-6.072h7.634c21.121,0,38.258-17.031,38.651-38.179V501.058
	c-0.398-21.148-17.537-38.179-38.657-38.179h-7.634l-0.097-6.072h183.324l-0.097,6.072h-7.634
	c-21.121,0-38.259,17.031-38.669,38.179V855.9h79.222c60.278,0,99.406-37.688,118.114-97.945L2029.566,757.968z"/>
<path class="st0" d="M2430.956,840.556c13.058,24.846,33.715,35.21,51.499,35.21h5.045v6.072h-192.267v-6.017h5.304
	c15.582,0,32.532-13.814,23.324-38.113l-29.708-75.029h-141.607l-30.873,75.029c-9.909,24.299,7.501,38.118,23.083,38.118h5.304
	v6.018h-129.393v-6.072h5.431c17.151,0,37.957-10.085,50.775-34.208l139.543-317.384c4.308-9.235,28.217-61.872,29.683-79.546h5.438
	L2430.956,840.556z M2284.027,737.093L2224.997,588l-61.836,149.093H2284.027z"/>
<path class="st0" d="M2738.039,663.958c36.732,21.421,56.749,55.283,54.185,100.676c-3.664,79.097-62.929,125.704-159.44,125.704
	c-54.117,0-104.832-14.031-126.846-36.861c-9.993-25.38-1.484-76.59,14.302-103.075h5.305
	c-4.84,63.304,41.402,115.528,113.799,114.35c52.476-0.966,83.427-30.226,83.391-68.266c0.036-24.627-14.332-44.166-48.24-62.703
	l-105.151-70.201c-43.142-24.434-62.157-64.707-57.757-108.965c5.129-62.867,50.913-106.298,127.033-106.298
	c19.419,0,54.625,2.714,82.185,6.229h37.902l-7.905,89.25h-5.811c-0.091-42.157-34.029-69.893-85.075-69.893
	c-47.51,0-77.52,25.799-78.986,58.399c-1.467,23.91,16.365,41.203,42.048,56.449L2738.039,663.958z"/>
<path class="st0" d="M1447.992,990.5c-15.75,0-90.33,4.25-165-162.42l-10.43-25.44l-77.91-189.95c-2.11-5.17-4.04-10.4-5.77-15.709
	c-6.37-19.491-27.3-77.191-64.55-121.431c-6.56-7.79-13.63-15.17-21.22-21.84c-23.49-20.66-51.941-34.61-85.62-33.46
	c-28.62,0.98-56.16,10.11-81.571,23.59l1.741,5.58c0,0,42-14.67,64.66,0c22.67,14.66,40,26.66,60,70.33
	c1.86,4.061,4.34,9.89,7.3,17.13l-133.97,304.681c-12.81,24.129-33.62,34.209-50.77,34.209h-5.43v6.07h129.39v-6.01h-5.3
	c-15.58,0-32.99-13.82-23.08-38.12l30.87-75.03h144.3c10.81,29.15,18.03,48.74,18.03,48.74s2.58,7.67,7.91,20.01
	c21.54,49.91,88.03,176.21,210.67,180.32c36.349,1.22,65.22-6.82,88-19.189v-6.311C1480.242,986.25,1463.742,990.5,1447.992,990.5z
	 M1021.942,737.09l64.61-157.479c0.18,0.459,0.36,0.929,0.54,1.399c17.89,46.15,40.829,107.27,58.6,154.96
	c0.04,0.12,0.09,0.24,0.13,0.36l0.29,0.76H1021.942z"/>
<path class="st0" d="M783.659,432.75H90.326c0,0,60.166-118.5,318.666-141c0,0-10-13-10-26.75s20.25-26.25,39-26.25
	s35.75,11,38.5,23.75s-2,18.5-6.75,24l125.75,28.75C595.492,315.25,739.326,341.25,783.659,432.75z"/>
<path class="st0" d="M338.992,195.75c0,0-6.333-16-6.333-30.5s7.666-28.667,13-36c5.333-7.333,15.333-22.333,15.333-43.667
	c0-21.333-2.667-35.5-26.167-45.833c0,0,6.834,15.333,6.834,33s-8.167,33.833-20.667,49.333s-11.333,25.834-11.333,31.5
	C309.659,159.25,310.992,174.917,338.992,195.75z"/>
<path class="st0" d="M383.159,96.25c0,0,33.5,15.833,33.5,48.833s-25.167,68.667-26.833,71.5c-1.667,2.834-14,16.5-3.167,58.5
	c0,0-31.167-16.666-31.167-46.666s24-42.167,30.584-63.167C392.659,144.25,396.326,134.75,383.159,96.25z"/>
<path class="st0" d="M493.992,234.75c0,0-12.75-36.5,5.25-61.75s24.75-40.75,25.5-55.25s-0.417-44.833-32.417-59
	c0,0,9.667,19,9.667,37.5s-8.5,35.833-15.167,45c-6.666,9.167-23.166,26-23.166,47.333
	C463.659,209.917,482.159,229.583,493.992,234.75z"/>
<path class="st0" d="M570.242,0c0,0,27.583,16.25,27.583,46.083c0,29.834-16.5,40.834-22.333,53.167s-13.667,29.167-1.167,58
	c0,0-47.333-30.333-23.833-66.5S583.825,51.083,570.242,0z"/>
<path class="st0" d="M506.562,913.08h-140.78c0.95-4.42,3.71-7.33,3.71-7.33l67.76-67.561
	C465.162,868.35,491.402,896.7,506.562,913.08z"/>
<path class="st0" d="M458.352,659.66l55.52,56.29l-71.42,72.83c-51.75-51.45-98-97.46-101.4-100.97
	c-7.94-8.18-11.5-17.871-11.62-24.621c-0.13-6.75-0.69-11.439-0.69-11.439c-7-56-35.75-110.5-50.08-133.33
	c-14.34-22.84-43.17-44.67-43.17-44.67h379.14l-156.15,155.56C450.102,637.67,450.042,651.23,458.352,659.66z"/>
<path class="st0" d="M416.242,815.5l-67.25,68.58c0,0-5.75,6.79-14.38,6.42c-7.41-0.32-19.89,10.24-30.3,22.58h-129.82
	c0,0-77.17,10-95.17-89c-18-99-36.83-204.08-36.83-204.08s-3.25-18-25.5-36.25s-17.83-57.17-13.33-63.67h35.33l0.67-46.33h83.58
	c0,0-26.75,24.5-26.75,55.25s34.83,136.75,183.17,168.42c0,0,5.95,1.29,12.71,0c6.74-1.29,19.37,5.08,32.62,19.45
	C331.082,723.49,372.902,768.67,416.242,815.5z"/>
<path class="st0" d="M877.992,550.58c0,14.17-12.5,23.34-22.17,29.5c-9.66,6.17-29,16.67-34.66,52
	c-5.67,35.34-34.17,198.67-34.17,198.67s-6.25,82.33-106.5,82.33h-112.99c-23.92-23.77-63.44-63.04-102.84-102.22l72-71.8
	l55.13,55.9c8.39,8.51,22.11,8.54,30.55,0.08l190.72-191.19c8.38-8.4,8.37-22-0.01-30.39l-99.56-99.71h112.25v45h46
	C871.742,518.75,877.992,536.42,877.992,550.58z"/>
<path class="st0" d="M670.472,489.75c0,3.41-1.3,6.82-3.9,9.42l-147.16,147.16c-5.2,5.2-13.64,5.2-18.84,0
	c-2.6-2.6-3.9-6.01-3.9-9.42c0-3.4,1.3-6.81,3.9-9.41l147.17-147.17c5.2-5.2,13.63-5.2,18.83,0
	C669.172,482.93,670.472,486.34,670.472,489.75z"/>
<path class="st0" d="M720.076,552.667L572.909,699.833c-5.201,5.201-13.632,5.201-18.833,0c-5.201-5.2-5.201-13.632,0-18.833
	l147.167-147.167c5.2-5.2,13.632-5.2,18.833,0C725.277,539.034,725.277,547.466,720.076,552.667z"/>
<path class="st0" d="M773.242,605.833L626.075,753c-5.2,5.201-13.632,5.201-18.833,0s-5.201-13.633,0-18.833L754.409,587
	c5.2-5.201,13.632-5.201,18.833,0S778.443,600.633,773.242,605.833z"/>
</svg>
